<?xml version="1.0" encoding="UTF-8" standalone="no"?>
<!-- Created with Inkscape (http://www.inkscape.org/) -->

<svg
   xmlns:dc="http://purl.org/dc/elements/1.1/"
   xmlns:cc="http://creativecommons.org/ns#"
   xmlns:rdf="http://www.w3.org/1999/02/22-rdf-syntax-ns#"
   xmlns:svg="http://www.w3.org/2000/svg"
   xmlns="http://www.w3.org/2000/svg"
   xmlns:sodipodi="http://sodipodi.sourceforge.net/DTD/sodipodi-0.dtd"
   xmlns:inkscape="http://www.inkscape.org/namespaces/inkscape"
   width="744.09448819"
   height="1052.3622047"
   id="svg2"
   version="1.1"
   inkscape:version="0.48.4 r9939"
   inkscape:export-filename="/home/salva/g/s5/s5-state-machines/top-down-flow.png"
   inkscape:export-xdpi="57.973484"
   inkscape:export-ydpi="57.973484"
   sodipodi:docname="top-down-flow.svg">
  <defs
     id="defs4">
    <marker
       inkscape:stockid="Arrow1Lstart"
       orient="auto"
       refY="0.0"
       refX="0.0"
       id="Arrow1Lstart"
       style="overflow:visible">
      <path
         id="path3779"
         d="M 0.0,0.0 L 5.0,-5.0 L -12.5,0.0 L 5.0,5.0 L 0.0,0.0 z "
         style="fill-rule:evenodd;stroke:#000000;stroke-width:1.0pt"
         transform="scale(0.8) translate(12.5,0)" />
    </marker>
    <marker
       inkscape:stockid="Arrow1Lend"
       orient="auto"
       refY="0.0"
       refX="0.0"
       id="Arrow1Lend"
       style="overflow:visible;">
      <path
         id="path3782"
         d="M 0.0,0.0 L 5.0,-5.0 L -12.5,0.0 L 5.0,5.0 L 0.0,0.0 z "
         style="fill-rule:evenodd;stroke:#000000;stroke-width:1.0pt;"
         transform="scale(0.8) rotate(180) translate(12.5,0)" />
    </marker>
    <marker
       inkscape:stockid="TriangleInM"
       orient="auto"
       refY="0.0"
       refX="0.0"
       id="TriangleInM"
       style="overflow:visible">
      <path
         id="path3915"
         d="M 5.77,0.0 L -2.88,5.0 L -2.88,-5.0 L 5.77,0.0 z "
         style="fill-rule:evenodd;stroke:#000000;stroke-width:1.0pt"
         transform="scale(-0.4)" />
    </marker>
    <marker
       inkscape:stockid="Arrow1Sstart"
       orient="auto"
       refY="0.0"
       refX="0.0"
       id="Arrow1Sstart"
       style="overflow:visible">
      <path
         id="path3791"
         d="M 0.0,0.0 L 5.0,-5.0 L -12.5,0.0 L 5.0,5.0 L 0.0,0.0 z "
         style="fill-rule:evenodd;stroke:#000000;stroke-width:1.0pt"
         transform="scale(0.2) translate(6,0)" />
    </marker>
    <marker
       inkscape:stockid="Arrow1Mend"
       orient="auto"
       refY="0.0"
       refX="0.0"
       id="Arrow1Mend"
       style="overflow:visible;">
      <path
         id="path3788"
         d="M 0.0,0.0 L 5.0,-5.0 L -12.5,0.0 L 5.0,5.0 L 0.0,0.0 z "
         style="fill-rule:evenodd;stroke:#000000;stroke-width:1.0pt;"
         transform="scale(0.4) rotate(180) translate(10,0)" />
    </marker>
    <inkscape:path-effect
       effect="spiro"
       id="path-effect3003"
       is_visible="true" />
  </defs>
  <sodipodi:namedview
     id="base"
     pagecolor="#ffffff"
     bordercolor="#666666"
     borderopacity="1.0"
     inkscape:pageopacity="0.0"
     inkscape:pageshadow="2"
     inkscape:zoom="1.0670688"
     inkscape:cx="372.04724"
     inkscape:cy="803.32899"
     inkscape:document-units="px"
     inkscape:current-layer="layer1"
     showgrid="false"
     inkscape:window-width="959"
     inkscape:window-height="576"
     inkscape:window-x="65"
     inkscape:window-y="24"
     inkscape:window-maximized="1" />
  <metadata
     id="metadata7">
    <rdf:RDF>
      <cc:Work
         rdf:about="">
        <dc:format>image/svg+xml</dc:format>
        <dc:type
           rdf:resource="http://purl.org/dc/dcmitype/StillImage" />
        <dc:title />
      </cc:Work>
    </rdf:RDF>
  </metadata>
  <g
     inkscape:label="Layer 1"
     inkscape:groupmode="layer"
     id="layer1">
    <path
       sodipodi:type="arc"
       style="fill:#ff0000;fill-rule:evenodd;stroke:#000000;stroke-width:1px;stroke-linecap:butt;stroke-linejoin:miter;stroke-opacity:1"
       id="path2985"
       sodipodi:cx="262.85715"
       sodipodi:cy="159.50504"
       sodipodi:rx="74.285713"
       sodipodi:ry="30"
       d="m 337.14286,159.50504 a 74.285713,30 0 1 1 -148.57143,0 74.285713,30 0 1 1 148.57143,0 z"
       transform="translate(74.285714,-62.857143)" />
    <path
       transform="matrix(0.77048185,0,0,0.86024077,-56.81237,53.720877)"
       sodipodi:type="arc"
       style="fill:#ff0000;fill-rule:evenodd;stroke:#000000;stroke-width:1px;stroke-linecap:butt;stroke-linejoin:miter;stroke-opacity:1"
       id="path2985-7"
       sodipodi:cx="262.85715"
       sodipodi:cy="159.50504"
       sodipodi:rx="74.285713"
       sodipodi:ry="30"
       d="m 337.14286,159.50504 a 74.285713,30 0 1 1 -148.57143,0 74.285713,30 0 1 1 148.57143,0 z" />
    <path
       transform="matrix(0.77048185,0,0,0.86024077,91.759053,103.72088)"
       sodipodi:type="arc"
       style="fill:#ff0000;fill-rule:evenodd;stroke:#000000;stroke-width:1px;stroke-linecap:butt;stroke-linejoin:miter;stroke-opacity:1"
       id="path2985-7-1"
       sodipodi:cx="262.85715"
       sodipodi:cy="159.50504"
       sodipodi:rx="74.285713"
       sodipodi:ry="30"
       d="m 337.14286,159.50504 a 74.285713,30 0 1 1 -148.57143,0 74.285713,30 0 1 1 148.57143,0 z" />
    <path
       transform="matrix(0.77048185,0,0,0.86024077,277.47334,80.863734)"
       sodipodi:type="arc"
       style="fill:#ff0000;fill-rule:evenodd;stroke:#000000;stroke-width:1px;stroke-linecap:butt;stroke-linejoin:miter;stroke-opacity:1"
       id="path2985-7-18"
       sodipodi:cx="262.85715"
       sodipodi:cy="159.50504"
       sodipodi:rx="74.285713"
       sodipodi:ry="30"
       d="m 337.14286,159.50504 a 74.285713,30 0 1 1 -148.57143,0 74.285713,30 0 1 1 148.57143,0 z" />
    <path
       transform="matrix(0.77048185,0,0,0.86024077,163.18763,249.43516)"
       sodipodi:type="arc"
       style="fill:#ff0000;fill-rule:evenodd;stroke:#000000;stroke-width:1px;stroke-linecap:butt;stroke-linejoin:miter;stroke-opacity:1"
       id="path2985-7-6"
       sodipodi:cx="262.85715"
       sodipodi:cy="159.50504"
       sodipodi:rx="74.285713"
       sodipodi:ry="30"
       d="m 337.14286,159.50504 a 74.285713,30 0 1 1 -148.57143,0 74.285713,30 0 1 1 148.57143,0 z" />
    <path
       transform="matrix(0.77048185,0,0,0.86024077,334.61619,243.72088)"
       sodipodi:type="arc"
       style="fill:#ff0000;fill-rule:evenodd;stroke:#000000;stroke-width:1px;stroke-linecap:butt;stroke-linejoin:miter;stroke-opacity:1"
       id="path2985-7-7"
       sodipodi:cx="262.85715"
       sodipodi:cy="159.50504"
       sodipodi:rx="74.285713"
       sodipodi:ry="30"
       d="m 337.14286,159.50504 a 74.285713,30 0 1 1 -148.57143,0 74.285713,30 0 1 1 148.57143,0 z" />
    <path
       transform="matrix(0.77048185,0,0,0.86024077,448.90191,140.86373)"
       sodipodi:type="arc"
       style="fill:#ff0000;fill-rule:evenodd;stroke:#000000;stroke-width:1px;stroke-linecap:butt;stroke-linejoin:miter;stroke-opacity:1"
       id="path2985-7-9"
       sodipodi:cx="262.85715"
       sodipodi:cy="159.50504"
       sodipodi:rx="74.285713"
       sodipodi:ry="30"
       d="m 337.14286,159.50504 a 74.285713,30 0 1 1 -148.57143,0 74.285713,30 0 1 1 148.57143,0 z" />
    <path
       style="fill:none;stroke:#000000;stroke-width:1px;stroke-linecap:butt;stroke-linejoin:miter;stroke-opacity:1"
       d="m 294.28571,240.93361 0,0"
       id="path3055"
       inkscape:connector-type="polyline"
       inkscape:connector-curvature="3"
       inkscape:connection-start="#path2985-7-1"
       inkscape:connection-start-point="d4"
       inkscape:connection-end="#path2985-7-1"
       inkscape:connection-end-point="d4" />
    <path
       style="fill:none;stroke:#000000;stroke-width:1px;stroke-linecap:butt;stroke-linejoin:miter;stroke-opacity:1"
       d="m 337.14286,96.647892 0,0"
       id="path3057"
       inkscape:connector-type="polyline"
       inkscape:connector-curvature="3"
       inkscape:connection-start="#path2985"
       inkscape:connection-start-point="d4"
       inkscape:connection-end="#path2985"
       inkscape:connection-end-point="d4" />
    <path
       style="fill:none;stroke:#000000;stroke-width:2;stroke-linecap:butt;stroke-linejoin:miter;stroke-opacity:1;marker-mid:none;marker-end:url(#Arrow1Lend);marker-start:url(#Arrow1Lend);stroke-miterlimit:4;stroke-dasharray:none"
       d="m 320.50417,98.22114 c 0,0 -193.23425,68.42925 -178.99502,87.15464 11.63904,15.306 176.08056,-82.04519 182.74361,-70.286 7.07716,12.49003 -54.35451,120.89193 -35.61158,123.70337 18.74294,2.81144 51.54307,-115.26905 63.72598,-119.01764 12.1829,-3.74858 102.14899,82.46891 103.08613,91.84038 0.93715,9.37147 -115.26904,159.31494 -101.21184,166.81211 14.0572,7.49718 99.33755,-155.56635 110.58331,-150.88062 11.24576,4.68574 47.79448,142.4463 61.85168,139.63486 14.0572,-2.81144 -47.79448,-131.20054 -28.1144,-138.69771 19.68008,-7.49717 113.39475,64.66312 123.70336,47.79448 C 632.57402,259.41037 536.04791,239.73029 492.93916,209.7416 449.83041,179.7529 352.36716,94.47255 352.36716,94.47255"
       id="path3005"
       inkscape:connector-curvature="0"
       sodipodi:nodetypes="csssssssssssc" />
  </g>
</svg>
